<svg width="1200" height="900" viewBox="0 0 1200 900" fill="none" xmlns="http://www.w3.org/2000/svg">
  <defs>
    <linearGradient id="bg" x1="100" y1="0" x2="1100" y2="900" gradientUnits="userSpaceOnUse">
      <stop stop-color="#DDFBF1"/>
      <stop offset="1" stop-color="#FFEED8"/>
    </linearGradient>
    <linearGradient id="card" x1="260" y1="190" x2="940" y2="710" gradientUnits="userSpaceOnUse">
      <stop stop-color="#FFFFFF"/>
      <stop offset="1" stop-color="#F5FFFC"/>
    </linearGradient>
  </defs>
  <rect width="1200" height="900" rx="42" fill="url(#bg)"/>
  <rect x="140" y="120" width="920" height="660" rx="34" fill="url(#card)" stroke="#D6F1E7" stroke-width="2"/>
  <rect x="180" y="172" width="180" height="560" rx="22" fill="#0F7A67"/>
  <rect x="212" y="224" width="118" height="16" rx="8" fill="#D7FFF3"/>
  <rect x="212" y="258" width="92" height="12" rx="6" fill="#B6EEDF"/>
  <rect x="212" y="320" width="118" height="16" rx="8" fill="#D7FFF3"/>
  <rect x="212" y="354" width="74" height="12" rx="6" fill="#B6EEDF"/>
  <rect x="212" y="416" width="118" height="16" rx="8" fill="#D7FFF3"/>
  <rect x="212" y="450" width="86" height="12" rx="6" fill="#B6EEDF"/>
  <rect x="392" y="188" width="620" height="84" rx="20" fill="#EFFCF8"/>
  <rect x="430" y="220" width="220" height="14" rx="7" fill="#AEDFCE"/>
  <rect x="698" y="214" width="274" height="24" rx="12" fill="#1A9D84"/>
  <rect x="392" y="298" width="296" height="202" rx="22" fill="#FFFFFF" stroke="#E4F5EF" stroke-width="2"/>
  <rect x="426" y="336" width="116" height="14" rx="7" fill="#1A9D84"/>
  <rect x="426" y="364" width="212" height="10" rx="5" fill="#C1E6DA"/>
  <circle cx="500" cy="430" r="44" fill="#D8F8ED"/>
  <path d="M500 394V430L528 446" stroke="#0F7A67" stroke-width="12" stroke-linecap="round" stroke-linejoin="round"/>
  <rect x="716" y="298" width="296" height="202" rx="22" fill="#FFFFFF" stroke="#E4F5EF" stroke-width="2"/>
  <rect x="748" y="334" width="166" height="14" rx="7" fill="#D1ECE3"/>
  <rect x="748" y="364" width="224" height="10" rx="5" fill="#E2F5EE"/>
  <rect x="748" y="395" width="240" height="14" rx="7" fill="#1A9D84"/>
  <rect x="748" y="427" width="210" height="10" rx="5" fill="#D6F0E7"/>
  <rect x="392" y="526" width="620" height="206" rx="22" fill="#FFFFFF" stroke="#E4F5EF" stroke-width="2"/>
  <rect x="426" y="560" width="160" height="14" rx="7" fill="#1A9D84"/>
  <rect x="426" y="592" width="544" height="10" rx="5" fill="#DAF2EA"/>
  <rect x="426" y="621" width="500" height="10" rx="5" fill="#EDF9F5"/>
  <rect x="426" y="650" width="462" height="10" rx="5" fill="#EDF9F5"/>
</svg>
